<mxfile host="drawio-plugin" modified="2024-09-15T21:10:28.736Z" agent="Mozilla/5.0 (Macintosh; Intel Mac OS X 10_15_7) AppleWebKit/537.36 (KHTML, like Gecko) Chrome/122.0.0.0 Safari/537.36" etag="M63HSCiT0KRUc_6-rDIW" version="22.1.22" type="embed" pages="2">
  <diagram id="j3613_WdS6IUzTc_X1LY" name="Page-1">
    <mxGraphModel dx="517" dy="444" grid="1" gridSize="10" guides="1" tooltips="1" connect="1" arrows="1" fold="1" page="1" pageScale="1" pageWidth="850" pageHeight="1100" math="0" shadow="0">
      <root>
        <mxCell id="0" />
        <mxCell id="1" parent="0" />
        <mxCell id="2" value="" style="shape=stencil(7VnLbtwwDPyavRKSKOpx7uM/CjRpFk2TIk1ff1+6CzkWuR4j16K3TcyxpCE5pOgTv/l29+HrzSmFb89Pj59vfp4/Pt+d+O0ppfPD3c3T+Vl/nfjdid/cPj7dfHp6/P7w8fL31w+L5fLry+OP5Q2/LriYKYYFlcLvy3+Yevr7j/cX+/vzw9Y+Ui3GvoV9+06V7evbvnmlJpN5psz75oVim8yFYtw3z1T7ZF6Iwd6ZZH57g29PJHEyj4E4AyqpzbuJPI6zZz9zE8sgd28/8/ZTgPYaCXW2z9Q7It+wqc5OgB+lI5nQYUoVADLxfAKuFBCjjWqewyeQIIoS9XlLmakAH+ih+xzPucAVOFAxW+oUQYJxpjDTKpFyAYBKKc0APQMK6059drQIiYDASJTnyJZKjPIs20NLG8F7HVAoz1sqYRB9HaCpOK9QmBjQqqybbCsyaLgKUNab2VKjDg4tLn9qooBWKHaFKpRBeEsf2rkCGlRT5UTmaG3qSpTSdUTOChBYDvSIcaa19VFQrgOqDe8eYQLpji0Aq0ZTWudD9zyU+XqJihRnYe3YDy/vWwEFelofdwfIwHG9UcoWIGhLfVSyLQCt0EcgbAAFhIYCSrGAhgHNHLqODNkDWJYqCQi+7vJBAShFYwgUDE0NykZ3WqkAVEQXgFkB670+rs0CkN4vjmALqHiFXCwA0aSPTaHeELeHCNUtgYJDheZ1ALHdxuIIFE1rTdu6GgPYRVNDrhaXc1qKEUsyYm2bpMjVqw5tlAkVLX1cHAAKjbic0xYabamMHm8DCIil4sQSN+nd9ZULbziWglsBdRuLDjl1zSiDqq1yy5qIJQWwBUB1LSP6N9GasB/MPUwBByvkZgEdseQuV0uWI8cp626FhsO7JAuAgi/jNrgBBAywGVexp2U0tpvQOJAZdnU0IlpVl4zyyRD0XVqTBaQDx/kUxYDsAQfBF9yWkMy8GlDHVGFL6/8G6H8DlP6RBqi5JO1DGPZSyGZEx5U6O2VqIwv37kHByTG61uhNyzZxFWpfi65CCHRE9YfOo7JeB0QHiCNt9268plK3RhmcoSSbcw2PyfTWznMjqjSgFaTYbkMvzegSLjxq2grIsK+UOMZoKyDCG2/uVjZKwyOjOuR9M25pIJayjDK7GeigUUXOduxVDs6QbJuonkH9PXdbqUXzAZQU1mg1Yy/cCzDbsigZ9jMc7FxAXYmKVnLd98H4cZkauwEnGpLHZrUyH4yx2c5n+EC+rRsYz6TETvo4jrHwzpy8z5ymCikKVgD0DSgsXMmNq27u2EdTfCLsAqK1r/DKl8YgafXXaFP2vgrM3kpwQC6j4183TxmNA20FCbjbpiLGHH5hcR+rAvSs/xiGq/7ygSJZe6C7am+SKwwR27Ov9v1IE9W+2fOii7Dam+Yu4g8yYjuECHtBb5/ggMTvJ8Hi7c/LMBM9nww/L3p/MeygfDwwLHqv/vh6aK8/Xr703p7v7y8firfP7Zdh/dflqzK/+wM=);lineShape=1;strokeColor=default;" vertex="1" parent="1">
          <mxGeometry x="93.76988550501903" y="78.13774690803382" width="200.22202244238338" height="94.94866755548958" as="geometry" />
        </mxCell>
        <mxCell id="3" value="" style="shape=stencil(lVrZchw3DPyafUURPMFnx/kPV1mOVFEslyzn+PuA2XB22TPTKr9Ju+jlAaDRwMwlffj++OnbwyWG72+vL78//PX0+e3xkn65xPj09fHh9enN/7qkj5f04cvL68Nvry8/vn6+/v/t07Acf/3x8uf4hb+vOEvS40DF8M/1k94k9P8++fUKeH76eg8o0mwFFOlGAE16WAFZSj0H9CAhr4A4N3kMiKJ1BagEJYAsuh7aTBrbUsEz+DV0BmiS+wqIYoUATNJ6huafkGt1QF1XaElypoCsC6BuP3F2hpZWQJbItlTFABAkJnqt/9/JBJQqNVDHwQolzXs7BiRpq6dLmJ45i6W8hnduYuzQHmqr43KRTDxtfbdCEmUZt/ND1hm/Zylq66FTl0jywUkA/JA8fsm1moqtKZoKDe/WxdYESpmGd/NDwwpJAjl0K1Lh0CqNbSlNN22AIIUkUFOJKyD2mVKHgNolrJ6OPKdrnUy6ARqNVk/I3lZAnfd2DEi7LVVRtiU/9Eoz0QsA2VLpUhUBheR0abtDFxqtzhEJtuS0wLbktwRbStQPTiptzemolGZKlLauoJ5xDKBS1kNroyTgtAV+0CKhnQOyYcZppLfkPKcACJM8jwHuJiiKUgnb513seaySwMgBScYXJPtJJmVNBqcYsp9U59cbAdDIdsYCmZEoSTr/9A72rBo6m7QG9szDgxvW++Eyya8vJLA3kmf+dYE8mxs8tt+K/d3vEwL2iO8Zz8vsd8rTs5hwnW7uvNlX4i9VlMKZVhxPD0V7Vg427r+ZG6NqLICFRrN/C0Jnkt5xcEpZa1mbpHpiDiKnSyebCdORd1TCFIvbQ4sgmTBDwN048RA697jMYB7IxbsKULgaJgsCaqc2lzuOmlnbbuZKkkqR0xqP+alVb+aMwuOuD5pV5sQcBJBN+XFmjkHD+H7XxXnQsCjwdIUg412fSt3Zs4bJS76ifSXHDUhnw57wTUB6Hfsh+w+SdvWZ9aDhoJ4nwq9h3t7NXZXGPVQTo4QTZpjfhRr99YxpwlMcWqQ2nXfi2gC98ztJmHcpzgoV1p02k/gk7gNmVSBHjVME3cwbUxU/Z74LYpty/oxvVjcVKnvTTKA7xUIusmBZiLPInVTMsh5VaeduKF91Ev9xo49tik78mZoA/b1d7alaQXvmqKGG0L4w+zbV/82eXeaomgr2Sva/V4uBVtnh3IL2rDo0HJsEqs7cXzAq8v0zQRSn2L7ZR5K13g1EtC9kP95tFPQXa8e8m4Huh1eHvG/UaSp6N9aw+6kkF3Od131Lddb9eP8J5YePMnLHct5ptT3ooJVqUu/RMYEzzeCSsWRppYKhFJRTapLZGeqOD5UKsGK4paFq+DQGatGQWeTQVTFMR2LziRJ00e+0rbVg4oy+m63QUPh458QKavXuYfXDGEGR3Gm6m1nV2R+dzQ5B9A99wgAVWxYvP0aitRnW7RSo4yzsphlKg88iSqzEq7FlZODE/WB1Rs4GqFSBms0HQxvAaJHqAZVZ5jPc8agIZumJlp2+zQw2QKF1ue9Gss6EjMh6xbGYU5vxZ0sI4KOBblhqnRbY0LcbnsGznImL3lGMVOO9W9i1/J5TbLrkS8B8v3VJDGDIZB7A7IGAOwLmbx6PygAZS3RXOqHsEVcY4cXuNWCR64X2Qb5jmI2PJ5FkS56jIPOG8zkLAM+4Z5iwdYDiMIhLvfFMuu2WYESTUGs7gI0eLeEsYIQXe+C1xf8dgAW4JRzOOoA+V087zxkti5ZwntiNzvDGliICmEQfh4ZrbfM5x+m1KgKYYrLdgxYHsAz6+dcV3gf4H7e3I748PT9fX664/x7fpvCPrm9ipI//Ag==);lineShape=1;strokeColor=default;" vertex="1" parent="1">
          <mxGeometry x="115.90604051177911" y="70.0621002496224" width="202.1875639209768" height="101.44355091929799" as="geometry" />
        </mxCell>
        <mxCell id="4" value="" style="shape=stencil(nVdJcttADHwNr6jBbMCcHecfrrIcqaJILlnZfh8wLMYcUGzbuVEimoOtG5gh3b3sH553Qwwv18v56+7n4fG6H9KnIcbDab+7HK72NKT7Id09nS+7L5fz99Pj9Pv5YbQcn76df4xf+DXhslLOIyqG39M/TFL+/vF5sj8eTr19KJ29kGRgL5Rq//1CmQGgkvaAmEgRQClqB0iRWLcBhalwD2ikDQDM494lc7KhExpJf0JJxHUbUCNJ6wA1UBAAKCR90FWoIECj5OqWSUHh7HXsY1CmnLYBGqj1J6gQg8KpUulbr1nvgRM4WFJCjxBqYRvRLOrYA+zQCACFmgM0YnRCIBYPQIXQSLV6gIJmskJwX+pFHraaoyZ/RANRF5k9WAAqaA6jkKyiZkAhkwGfV52d3JIByR4QsAy4BrfeSIjVkYoL2qQHSJ+x2ndfhYyophLJA5AySaGyBoDCaaLGHhDBCcYwbh5QQVpfXy/SCgnRbgAqqMPY/q5wOrP2NsDqmjwAtXeLlJxLDUtZuQFQELQIhRWp0YSoOjuwBCD9Disla3BQ28Tx7d3mUbxFoDVFFVNUV4AI6vBxQPCj3UoZgC6l6pVPBQadeF5GFlOugkrH6vcl0+cG6hDjXKbFpK7AJTYC9Vmq/2bMbUCl1Iux1R4RiNkzzuQZyYytFr3wZTyAEkkfgW1kEQ1236pvrHw870bv3CmNO/338c662jLwShxIvHkCwUY/OsM8JW4Tn0Jz5gUICwe/q1rwoFS82hUClPcxuODsUStYqjl/wN46RfkD/iSZdfZ98ebo1wScz1z8uobLZUySPp+4G/7j/vWGvT28XvaeDsfjdFdcvveXQ/trulim+z8=);lineShape=1;strokeColor=default;" vertex="1" parent="1">
          <mxGeometry x="210.58025088158388" y="159.5905945542637" width="5.862223368796208" height="80.57790107791857" as="geometry" />
        </mxCell>
        <mxCell id="5" value="" style="shape=stencil(rVfbbhtBCP0avyIGmNtzmv5HpDi1VTeOHKeXvy/b1WwC2aWN1Lf1mDMwcDjM7Pjm+XD3tN8RPl8v56/7H8f762HHn3ZEx8fD/nK86teOb3d883C+7L9czi+P9/Pvp7vJcvr6dv4+7fBzxqUCvU4owl/zihQo5c/K5xlwOj6+AZBASgZQEhTZBjACWQ+VACkAZGgW0BBq4EESNLQhdahtG5ArcLeA5VSrgMLAzWdJgiyVCp0NgAlyEJLmpNqQKAEHWdKciA1J0xY4aAQsNiJINbAX6Hb/BCnav0EiY49jYdW+JxD5iL1A7j6eoAK9ArE/Lwf2HRL6fAakS4iAFtDHwpaDZhOUaHTGOqBBsQ5SDinRF04ugDp8rgMYigupQ44A6PtAq0ZBVlsFbN5DSFMBdGdokIPWbKo+2QIKUEAMbRx0RNLuDupQNSfOg1I1oMbkwR5aRTZgxnQEWwYJmTTlyFI7hfo4FcG3Gketg14qMGY2D2l7ta+RvfLUxk+DVluN4PaXkENTp9kRpWocsHqllZOKS4/FwjWOAOf/CNCasQ2J2xCodQB7tcg6cf5CazcES6jAlQeLl7SWQZT1MVtG5y6DnELiSfUzTVW/BgDNibhexpirExVsMyu7MNAX5bLTl6b0CiRPRZpsqVUPcqSRK7cXCo6A0G13ZgkLjT6eiRhBUt81Q8YxqjfsHVOlAUcJ8hdIvUtFrUBDnRd7GXq5zqJRz8WewxmVPSNE53I0ogCdfRp6syEvQOkdIDiw3gt8RgkkYIRqSer+yBJztDaf00hSP/xM+AeAfry+Sh6Op9P8qHn7v3/F6NL8AuLb3w==);lineShape=1;strokeColor=default;" vertex="1" parent="1">
          <mxGeometry x="202.84065062885804" y="208.64518390455908" width="24.1053240532392" height="24.41088029188768" as="geometry" />
        </mxCell>
        <mxCell id="6" value="" style="shape=stencil(lVjLbhsxDPwaXwmRep/T9D8CxKmNunbgpK+/L7eutiFtTZDb2suRSGqGpHYT7152D8/bjYSX1/Pp6/bn/vF1t4mfNiL742573r/q0ybeb+Ld0+m8/XI+fT8+Xn4/PyyWy9O3049lhV8XXG/Uw4KS8PvfP516/PvP5wvgsD++BWSK0QISBQQIxGwAjSn1OaBFKnaHUqmkOaAWKs0AcibhOaB0itUAUiIuACCUigFE3QEEnQtFm1bRPRsABGrWJakQkApxtoBGCbiUhIKLIVDPc0As1NPVDgEAeGR9BcRBlpsAUS7ZHbgTyxygr6tYQB1HeRuQqNoscSMBMXDwXBIeS9wmH9Xik9SBR5myjSAFEkC9SM0GkIUy4AVTsTwqDaqNvZxVHBX4r5wp3r4BfzSf4v2pwJ9A0dmXscLE3lWXouUDaD9QcPZh6GJmb/1ZpA2KkfpjKa3n1QB/wlUp6lCVwZ9vqkOmk/N1/qt9gPaxeXsUL3tFpkYN5J+pu1qtVQPwQUZhXu3TUNDEXiyfcyMGfNb1rT+F4XmJz2fJY4VZfpweKzVU4ihZ/qi+EqpwFJq371CP9UrvAu0Te/8T5Ce7eBMVqPcQff4F1p9gG2uulLF9t/ZxVLCJvTh+amcGPSxQtvxU/mfQYD5qL15fUVsa0OP6du1HAtevvv4wjxOfNchsN0iQD0sHtgHgfHL3gllPfDZDuNGMYf/SISXahlrg+rF6gmqCECCx75AcKaPBrPgWxngwU0a6wayP4XE2jPoUaY3D465rMjpmFVAktIa4Lq9ZRTHryN7tDprndy4F3epY+ySaI/Ta4QYtHQzQ9KoXm2KPoeIZXy9KbF1quieQjgLS1U2IgZYV4FxqQhHvUG31WvKGY3DXv5apg/bUu+/frcGrE4erit3fTZPjRhdI175OoCsgwxlnSZMTUIGKU4Cr2npvRl1ZAdEBOizDC5lcmQm48H385v4+QB/+fyh42h8Ol+8Mb9/7Dwv61+WjRLz/Aw==);lineShape=1;strokeColor=default;" vertex="1" parent="1">
          <mxGeometry x="66.35677718608247" y="235.0029384819153" width="148.0576628780267" height="14.406350342584005" as="geometry" />
        </mxCell>
        <mxCell id="7" value="" style="shape=stencil(nVrbchwnEP2afaW4Qz87zn+4ynK0FUVyyXIS/72bbDEeDjMHbd7sFWeg76cbLuHDt8dPXx8u3n57e3358+Gf6+e3x0v47eL99fnx4fX6pv+6hI+X8OHLy+vDH68v358/3/7/9VNb2f7118vf7Qv/3nDWlNhA3v64/eBMdP/98Ptt+dP1eVwehuXZpMCW5zp+PRtf7ljvqxFPj+OG9dGZHOn6UdrkTaLrqx3FdSYktl5APdUEok5nXB7Wl9AlOlkfR/2U0nc8WV/H81RnPNGnamP8fg3Gk+9HI2lcH00h+hHj4PvJSCXnjybICMimMoCYAoBCPaKJ4EdApSZWGSLsIN2Kh4AQTBydTqyxRIaQTRm1JM5YcqQgJo9uKt5YS8ymfy4IEOJ3MRo/GlpCP+QxIHc/2wCxH/IYUKcjJROIWqOY6hEgcg5IDg0nuf9yDAjdTDtAJXZI0STYoRhHwi1lYx0CWL5IpetkB4gkQFM12SMgsR1mteoOJGVnzXlxkoFoKfsDoR0J0ax2CPfYQQEyW5rJELv37wCWqDUnTDPqfIkdKfcstANYYodcpqwR+y/HgGo8yBC6Kc8AaLhgHNOSTL7kaQAVazzs4EwhSUABUK80VRa2g8OCq9mbEZKieW5MM60CEaG1IIOWtCQGotYSJ4ClHKNk1JICMttBI3hMAlrVK9uhTmXa918OAXqA6FFolr31AJIRUIgM+mdIle0XEg9qpmARwKqo1n3I3ip0YkeqExNwlGuob1aHAE+0pOFSQEu2E7pjwMamNr4nnF/liSAKrUCtGsAOldpBAZC91X8TE1qT+xiiLQZJYZfJvTXxsBCVMrHuQhmZVKTdWgAC26Gi82kfEJkdKgaQFmJG4WRLWxtAj0QSmUyFPVladhtgzHyNo3Et5VFL2lxVrqU07qBMdgUYhQ6BUrgGGO0QbA+pUzuMacZzvjTvoA0C64AaYLRDa9IWQo8AxzsU2QJyA0RaH2YZnKOpcraDs7RNb64BdZqWOF0PHU2lbZ+uxyrdNzxeP/eVlI3p+oDrWbXS9ZCSdEP+/QINmSlMn4L6cZwzyNTmqolZt9QAYGK/EiE7BFRugzhWEhd4BhPsKd1GCs4ANt4FqJ0WvfdIU45cCV3RMVZqPYpNarg5+i1luA0ArQn3vYqeIbQba7EJrGcVOw7Xr2ITaNgq9hN+n+YWwbImq/MAaVslx6PYpOn3/wAgXUReQgR5pNachdFgsKpVbRGbGQrtNjJ6Z4rUyhwYjxSc3WrtZ92nAmB4q+yC1k0FjJZW/kJZniDxDOrsXAYZDdfm1cSXnLV9kLdjbZEnemg/09amnEoNgK2DfafllNuyJl02crCxZ8/p9pQCcuKd2MQXtGXwHIB9ku+U4AxgR//WPn9BeaCr17bdLgBzc8gSX8GRkrafNHNntIMCaEDEqcH1PPV5HB62Jp3tYHuDsJ8bkB1qxQiqkWaBus0WdwMfxwCpt1E7AOMAbTQCM6hM3ftgWJJ7bjsbx4SIADba0x4eUp8CIgOUfuKd0HRSl7GFVgCrWSX1tLUzXGKAiAS08mF6CdPlldA7ijLPlXnd1RwBFFcdnpG34jC3Cp+jlW2AtJv6Zj5ihdZNEt0hT+le0wLjxApw0/Sd3cm2K0+4Nim0ZOVycG3CBj45IyVr+ZyP66sggN4gxOkGQehoTwE2IYDN0dqlRkEAG+21a5OIAGFHsjj1/UU/DgHz1c+Ofhwj5tslPqpr91d3CZHSgSFYULc7uDwZYnHLNx2JDfjbPSIAKp2mx6mDaO7KrjYrkj4NCJbvlRO6hABL7BBjr4G7oGZ0Pc6XdokSpiA4WBZeqNutN+SZQBuzdq8+3XozS7ebewg519+bHANi980NYKm3utnSlr63aO8boCrytDEl47pNaY/tNj0AKdQKvt8A7so60+lUr5QhMqJhe9rdXTfwBztQ3pQWMBKg6h79Olcqr51uAhytJBbbgPaAiD5ogrKwaPgshtnyARRkCpepw1mkPKv3WxYqwuJ1GHzd0Syky0flW1oBLQ6SLB20W3Tl7Tb6zHMSLGdccKLkvFJOF6qr5QlF5YcBArUSNaOoXJHQ76/MhJPmhRPc+wCRL9d//Hrr+OX69HR7Krn/O76N1J9u7yrDx58=);lineShape=1;strokeColor=default;" vertex="1" parent="1">
          <mxGeometry x="64.48484650509636" y="242.568248815047" width="397.9195748083275" height="101.23927338438295" as="geometry" />
        </mxCell>
        <mxCell id="8" value="" style="shape=stencil(lVjbchoxDP0aXjW25etzmv5HZkIaphQyJOnl7yuXeItk9tC+LayPLelIR/Ju+O71+eFluwnu9e10/Lr9sXt8e97wp00Iu8Pz9rR7k6cN32/47ul42n45Hd8Pj+ffLw99ZX/6dvzed/h5xrVGMXVUcL8+/qlU2p9/Pp8B+93hElCoBg1o5AMARArNAkJZB1TZTwO8c+QcQDAxTzbVdUDJkxNMMa8DcqMWFUDObMCJzOSKApRIDHxImXJVgJwwwNsTUiH264CYx+sF4CmCE2IYBgxALJTjOoArNc1DTJTBCZzJewtwIPuYqWgexCuUGiyZY0wSHgBxIVEyTntikBrBDRcHgAsMq09UNNMcRsZfB3jLgxhZgA/FVpzY+FHl14kmrzXAV4ooRuR1TH3DHtv1gWFqB0tBcmOHlfVZ25+WNFlZb5IoVXJALqb1WU4EhMlbXZm5jDxf81fHpziqgC+pS21PYUrQX1NlokUV+OupTtpVgD1+qMKFPR7Y423PEX8DXG/kPecRgZX1wcRfPAIl7G29iJIG6C/rApZ8c4BfP9hZJKVRgvEvOj6iuwxarKem7RdRRN0sUGC7P1LdQHGy38P9s2k0sgOs36K7sTRDFJ9g4yP8YnuK1hNprbh+k2nFjQqs32jqKwyJX6tHvb/UF2qTwm+y6xvM52LsYaog/pKfZv1Scf++HtSjs/FMyw4r653pd5IPgC9HTdvDN+Tc6+0FD6orWrbwMFrGtLAYD5f35m7EFmtbGlQuzZdH+azOJ7p6pbs3lM3JtiNxoYJxoM9YxuUE9ZbZFrw4jQaOPicaQIYdr0+ixZ7gAKDPurrGQiOHZqZseWNc9JLzXvMgRmZAnIigbQPiNABktickuUKAupG263Th5AiZ7vcmzbQokUN3uelmVmRUBD7UNmmjaC/IpX69NIAK5/X5AluWefk6YLoiCwARJ4DULKABPW1tEuwKBVsAxofqRhjWAEYiK75zdIBO7xrhHeLijr4gMvT6GkJCfcMLbVTzsBHObvd0wdTZDwMZXj1m6iS/0OwyJ0ert5z+zy80twHy8PeD0NNuvz9/T7p8bz8gyV/nj098/xs=);lineShape=1;strokeColor=default;" vertex="1" parent="1">
          <mxGeometry x="199.97624038621154" y="241.06680467862964" width="260.4456806098858" height="13.52893222448813" as="geometry" />
        </mxCell>
        <mxCell id="9" value="" style="shape=stencil(lVfLctswDPwaXTHgCyTPafofmYlTa+raGcd9/X2hamibkLQT32QZKwJYYAEO4elj//K+Gzx/XM6n77vf4+tlP4Qvg/fjcb87jxd9GsLzEJ7eTufdt/Pp5/F1/v3+MllOTz9Ov6Yv/JlxjpmYJ5jnv/OrSBz+v/g6Aw7j8Q5QE7F09i6T89uAUimHDuALVQYAoZw7QCiU0QnSHLiGIFQwIPWAFEgiACQqpQOII18AINigpVJJAOCIXQfIhRwGxNoBSiQnABDJ9wClMqEseeLYA4QqOCEnkj6GWsiDtIoC+rTWCgFKk40BpzXUVjnXar0V/CrCC0VnjxBAtYuUk426gg5KLYlX+0zFbdsz1WRpiIAGJm++n1ptredo4U9oPK4H7EiMQ77lbD2lnlLfDNW1N+seJYrZAjhvA2Il5x4BiNa2X7gEKi97KnERNIihcCPpPq0IEK2wTrwhUdJmMFmSpgnrMaiimHbLLar1LFUKJkulFeN6aeeFAmjzAJdibDL62f4MbJV1kgAQhCsUsgV4pHuU2AaN7H2T3XuZBEQvBq7yjGh71D6S9PZaKBX0QqZsJo9WBfBf+98ErHWCpqcLNqM6PRlE4LSOF/M5grqbctRzrBsAajYVPVnsGEiSdCxwP3m0TjISPbEn6J7EqIySPUFpQ/ZCoefNw+nslSRv7JFEhtgm6zUAuPJE1zq92XObE1uabeYmwzZLpQn0zR4JhWRK2doDwvIin9dBurlPWf/Rllq50XnLZwDf1y43c1+FBvClqmbWtQD5fXjz/wRAH24XjbfxcJjvKff/24uJvpovNeH5Hw==);lineShape=1;strokeColor=default;" vertex="1" parent="1">
          <mxGeometry x="98.9453401021591" y="262.1811885734546" width="4.8837784144773195" height="45.771052403734075" as="geometry" />
        </mxCell>
        <mxCell id="10" value="" style="shape=stencil(lVbLbhsxDPyavRKUKFHSOU3/I0Cc2qhrB47bJn9fbhdyLdo7RW5rmSOKnOFjkoe37dPrZor8dj4dv29+757P20m+TDHuDtvNaXe2r0keJ3l4OZ42307Hn4fn5ffr02w5f/04/ppveF9wlaLOoMgfy0EMxOXvydfFfr87XNlHJXEApsrrAGmUywAIhTIAZKaYRkCiAJ6k9oA6AphKXQeU2B/QAUqq6/aNScYXMTGIoAnJeH+gjO7Xfl23L5QCsK8U8ni/UosAYBzISFqjADwEZv+kFKmgmJvPadYurbUguI0kVBLAWss9xkuWCpUGaYhhAFSByms3yquJGkhTLV4YNXQt3gek/uJLDHYCmKvRa1utGJCH4D3kANNqAB3FJIVU4JOS6wCJEkirBe3lKsRAGlW9XBMkujbfk5gSaBgtkoizzxkqzwWQiVG5WYMLPmCUISueUHxKK+DAAM2RVmFBG6CMHkwWNcHy1DGnJryMqk2pjEEXyxKK4UYWpixGNIR75Yk8fBZQhNQBKlSeWvGM5Wk+FaTVhlsbpWdiLECryXrSSJy1tQQ82CyrYwwmXwFprV4ZV83/ftCe6Fm+IKtWvKOS5nkHyke6bC72DKVqGR/ngrV51LWZ9EaoCu3ZVYJCBm5Gp01CpDprVq7blR7RSrxu6NiKBVc2X8kSOiMrfMmYT2Mc8Wtz3i0XNiFQu/7kyvl/e/v4t9++7Pb7ZT2+/t/vw3a07NLy+Ac=);lineShape=1;strokeColor=default;" vertex="1" parent="1">
          <mxGeometry x="100.95501491782034" y="265.8515535258148" width="24.019681031536493" height="5.2011308658528606" as="geometry" />
        </mxCell>
        <mxCell id="11" value="" style="shape=stencil(lVbbctsgEP0ave4ACws8p+l/ZCZOrYlrZxw3l7/vqhpUL7JPnDeE9rDXc2Dgu9ftw8tmCO71dDw8b97Hx9N24B9DCON+uzmOJ10NfD/w3dPhuPl1PPzZP87fLw+T5bT6fXibTviYcT4Sy4QK7nPecZTLv42fs/1u3J/Zc6BSO3vnrtunQuyNvafM1+1LplKsvXpM1wE1kEQLKJQiAAhFm0Eo5AMAVHJsANGRgJy9W2rSECmSCHQRbExScNZC1ZapeOyBiW1IVRsBAKWQJAvQMoGsC1MKthEOz0YuFG1ha6aQAYCpWhfVUUAeHMVsALm2KC8CZBWSCDFohAKcDSkFcoBAoq22nWOtawU5LOct8yrkQUhZf9scfIZV0tHpxlU5xwigHjqSeqqIc558R1I9AnS6JmILCJESIkRpbVrKKjBppVyxwhcrVQzIVskkUvAAkKlaQM5Nqy4DFpFYSF2gGE/Tb/swiRsidaLQkbo2vb0McP3waaEFTOsEqN8BJOl1RpNGqjHdQCvpiyCH9RWnQWao320QzlUDNC73V9BEQaAykXKnSq4V4aJ9aE1dJo8pgngcFSsAev1UMKmr6yomSLaVPacmzLfFowqWAPtX+eqV7kC+q3r6xeNt/UptQm6cB6x2331TfW2vi/8PuKdxt5vff+f/+wefbs2PRb7/Cw==);lineShape=1;strokeColor=default;" vertex="1" parent="1">
          <mxGeometry x="100.89862237069451" y="282.8417880187626" width="14.632602131938597" height="5.297573349529898" as="geometry" />
        </mxCell>
        <mxCell id="12" value="" style="shape=stencil(rVbLbhsxDPyavQ4kUc9zmvyHgTjxoq4dOE6b/H2oLLQxVzbbBXpbyzMSyeFroLvX3eZlOzjzej4df27/jI/n3UA/BufGw257Gs/8NdD9QHdPx9P2+XR8OzxOv182FVm/fh1/1xveJ54lBKosZz6mE4/gvw4eJvx+PFzgKcC7Bd7H2/joEKLAW3jl/hxgpD0Gxij4giztcYjuNr54WCPtMXDKAyU1e+cHLIriQSnwWRAoItJtgjWzi40RHJJVnsgoMqgxI2iE2ERqhOxASSGwAZLAJ1nTLcMFScjIiteZ4K0kFNXplJGkECWAskLwSDKVcgQpUieLVAQhzUZeJ3DqSJNChtFM6giek2mVSS4iKML1TnOFx7ImrF4toKqbLDj2Sbm/JsayAdhVmZdglQbTp7ZNiFp9dsVDFkHR4Ep9+gTSyo1bQJL1SSAlSH2TYVmMFqWujdVGqJjU90l+UzOpb8QXcfhPjH44sDhBEbufPtwDtHHVjzcmaPOqTgMpXQ218gJnpyzQYlonvIrncSnx2cMo9eZaps2ZEZqSV/Fm2TBihFXxy9kT2vz6N7znhWGNPUTIyv2dvxwxq+C7eNqAojXINu1nvZAUufp84PBr+bNyn/o7nj++l7encb+fdr/L/5fLHh9NiyLdfwI=);lineShape=1;strokeColor=default;" vertex="1" parent="1">
          <mxGeometry x="103.94741555344592" y="303.7256871948323" width="15.174203376553237" height="4.548625610335421" as="geometry" />
        </mxCell>
        <mxCell id="13" value="" style="shape=stencil(lVbLbttADPwaXYl9kcs9p+l/BIhTG3XtwHHb5O9LVVCrpaQpeltJHJFDDrkc8sPb8en1MKTwdr9dvx5+np7vxyF/GlI6XY6H2+lupyE/Dvnh5Xo7fLldv1+ep+fXp9FyPH27/hj/8D7hWEniiErhY3ojVPn3i8+T/fl0Wdo3itLZp0qx7AMkkXIHKIlyAIBGqh2AM9W0D6hCpfcgTBmEpJm451CZEgipGeneQwvUKgRo6wGZcgaASqUPqTEJIN0SxdQD6lzJbdKFigM0CgrSyhTVAxQAxqyzBzRAmnlO4gKQAOmiFKInrcDDKLXk09pApXOjsiqcAC0ZQJ2HSAlIo2RKfaXV6iAA0Lw0tMIscaXaF06NNPAgddbmAlBAlqq1/AoAxSfzjPgDkLkHt+WdvVpV5x7cBujcwYsWTSCkGAIFh0jEoNTmQlypC2wI+xydmIRaA2mqKxLmE6SpKuVVBwnwICsOizxsq0k3mhSliQOV4klkJPBMLfk0MSBRLOLmC1FArbcBoIXsEnQCN8kjNaVIoSctAgdNFN9zjC+taB56gOUtAg7ip7Fd1EhLq3ao8+zcMedeFjYBwCS2LaD/e5lH+U7w3I+wNLvbS4700UTKQEHRRmQviAA1bdGytw8gnmzxsLdH1456vgGKoRTflBHGM/akEwNc2rhQ7ctlKxMaEra+eDXAeP536/ynvR3+rrgvp/N52pCX3/1KbK+mdTo//gI=);lineShape=1;strokeColor=default;" vertex="1" parent="1">
          <mxGeometry x="142.04950566234606" y="281.0541392011189" width="6.656219784173572" height="27.663749435814452" as="geometry" />
        </mxCell>
        <mxCell id="14" value="" style="shape=stencil(lVfZbttADPwavRJ7c/mcpv8RIE5t1LUDx+nx96UqSDVpaYK8yRa5y2NmSA354W3/9LobUni7Xs7fd78Oz9f9kL8MKR1O+93lcNWnIT8O+eHlfNl9u5zfT8/T79en0XJ8+nH+OZ7we/ILFMLolMKf6Y8uVPnfP18n++PhdGMfqVRjz5lK2bbPFLqxb4F62LZnGl/d2JdIDM6PhcRekCpl2XbQ1y0bh5ipAofcKbJNmUrctq+BOBp7oQgyrkLd2icqCVQokjRjv/Rw1b43Cvb8Silv20ujYs+PGmEFLQh3IMoCmyZaUtuDJhQajKmL7UGCMUmhZmHBdQbKusMCs8VBgwRt6J2yg4XmAJLuitTkb2gg6a4h2UYww05rAMl2mgslUCU9rzo2B2qAC9xIbJVaI0YhsdeLlvANSxEXtMosIVtVqrastcGktQ/N3VCoIgJ1r2HqEIACKJYKe4eOKFc85TSHDlRY+cB3VRJ0g+ZgQ2p5ZsiWQ7acbkwM+CA8q9aCpUgNUbRSdWitFFAOidhxWvELHMZRdse4jrCkUlm9AyprTysU/QDewj7pBDqt54n4sgrmdLBJtz5nteUQbQ6tYJn5tEP3I7fILDxbDtH2ITfKoHE6DaotayrE4AZVoWLhnTC8NeJkk87LEesOYZ5oyw0CHcbXtnEZY0l3q2yrVPoc5PqgvtNWFQHEh8heBEaKgpCitsntPhHCO1Y/2CVDTsdFIxYHXeiAGOt2xxYaqlRoQYyJogupzyzf2H/8JiACla/7Rt9sUOto9UNUL0BLtM6z7u2RBCS/mWiJGJXIs03nEdqVdKmwMNKBh1biO+ooihBOP/sR87G9Pvz/Yno5HI/TB9fte/+FpX9NX2f58S8=);lineShape=1;strokeColor=default;" vertex="1" parent="1">
          <mxGeometry x="144.8152578693023" y="286.3080364981936" width="26.797979350869923" height="22.884187795754087" as="geometry" />
        </mxCell>
        <mxCell id="15" value="" style="shape=stencil(lVfZbttADPwavRK75J7PafofAeLURt04cNzr70tBWMWk7EHzpmvEa4bkTvLwvn96200c3i/n0/fd78PzZT/Jl4n58LrfnQ8XvZrkcZKHl9N59+18+vn6vNy/Pc1fzlc/Tr/mP/xZcE0o8Izi8Hd5EjOl5cnXBXA8vF4BSqGSPKD0+4CUKAULaMT5PkCYSjMA5mHzJoAz1WgA+osOXOLuY0iRWgUuNao2S6lTBy5Jp2gtFKYWQJZWBwagCnG7D8hMNRtACxSBhRYpdWshUQOVboVS9YACXOqRuFiAUgO41DOJjaHW4eRtQCPhTdCAS71Tsy4p4QW51EeZVoASPkKXoqtDpyow6GDr0Hmk4TYgUBcLSBQBW9XjaPUw20SVjhQ3FhBba6Fs69CFMtBDVbbaOihZBMRQA7EVUGuUQR1KJ7YxtEwMLCigOUCkDuhd19crWxtsM8r+5OitXAJ1qOqSs5CxprVMttKzREGWZm7yxgLSdBoOXMVQQVq7KtjFoJXBinNcakwMshRDoOA0miE3VKOuuSqZKqBrL2NCXdE1I40yJSc5oVJAIepGEFpLYOHTAOV3sUFfJe72DKpDw6sJnXIgCC5ec5oHBnmNslGEUh41fAo26FLHULqdJRLbW7PACAI1twgInCcb5qlFtJp03zJiGmy/t5kEmyA8cnP0AUcoZ93e3LoX4DhsG15jCqkQY3ffI3+U1a4AgSriw/q7j3jRoFI+uval9QV8UNWm4vIP/Umjt60EpYzbKVv/GyXEH/G7cAxjybrbiNx6rmMLME4z6vd5geuItk7ZcBrFoJyojqMZiuzTZ5L/AOjFxxHo5XA8Lieo6/f+yKSPluOWPP4D);lineShape=1;strokeColor=default;" vertex="1" parent="1">
          <mxGeometry x="196.24087465129696" y="284.7872548242392" width="19.0532145789075" height="28.696338349898724" as="geometry" />
        </mxCell>
        <mxCell id="16" value="" style="shape=stencil(7VjLbhsxDPwaXwmJ1POcpv8RIE5jNI0Dx339fbl1tTa53mlzLJCbvatZSdRwONRGbl4f7162Gw6vx8P+8/b77v74uJEPG+bd8+P2sDvqr43cbuTmYX/Yfjrsvz7fn/6/3E0jp19f9t+mL/w44SRSiBOKw8/Tk1iotN9PPp4AT7vnCwBnat0A9EnKABAoVgNIgaSuA2KlbpeUG8UOZ0hsADVRQIBOIgbQmEJZB0innuwMnRgAkpBYQGlUEgAkig5QSBgAMmW76ZKI0QyVUrAApiwA0KkUC4jEIKyZxzHNgEAZcCknauwBiEtZ9xA9oAcA6NSi38Mfdl0F6OvWLEAogShNr92mMwnYgx5TdmGtMEr6veCipHREAA2rYyuPuK1FicVHqYGwKjdT9XtoYIaq+WDDqnMiEagaE6caHYpAVdnKXmYiilL3yidhfGKNfNlGiTVFQZQmEbBLUqXKKEXDkK1ZjNsQnuu6pEuyM6h6owSSspB7gWyVTMWST7mHJ3BaXMYHro9vXiiFKopppGizJ1JG4xMVq3oBq2QbR3oejypD1kQpbnxHGpmo2/gw1CMlXbQnrAcC5EhLpdjvN2ogz6bxjhCMRV4XZCeIcyVaFXmbyUpqRluIXrMnC4HPjC2HlBQBkFRJkZOfoSGAss5FqUPNlgWN1NUIchjFV+eYYN2ZEtMtKULTM6W+c0kw0yZtsWKUxoxr4uUcjNoBZC/E1/K/iGMdiXiRmaj0B6qL76NMfuP4Gkb4zpnWwX6beOOsicOAdD0PZZsD2iDpYpgjMh9Zpgpi2pd1fC7U1zdRvbxooa6oLItnXZsr+5ogsRW8VrCCBW+E1ZujTb9783dv/v94cyVCsADtVTvSsewdRo+j3V2ltxWBjvOBFx7jQnmuKxN7N98F0rV4I9wK7ugXGlBhMQm+tuk5I/FeCKuyHfX/wVNbJaEBxRAvelreGbFimMDLVgTdqYSFCauww9M+wulFh9V8sjd2fB3G+/r4NtqIc5+ACo9GtNoNZHjAyojFeLR+NTfuxPLIiuvjC1XX0A5FXssZryywDErwbqdChypxNLvn80qIcHFBCC0gyA6qDjmAjCdrM7gIqaOFzexbryL/AaA/zjefD7unp9PF6eV7f1Oqj063rHL7Cw==);lineShape=1;strokeColor=default;" vertex="1" parent="1">
          <mxGeometry x="237.93817652255063" y="285.4087408104216" width="25.68113331886866" height="27.829889327432284" as="geometry" />
        </mxCell>
        <mxCell id="17" value="" style="shape=stencil(7VjLctswDPwaXzEkwQdwTtP/yEyc2lM3zjju6+8LxUPVhOTN9NZDboqjlYAFdgFxw3evu4eX7SaF1/Pp+HX7c/943m340yal/fNue9qf7WrD9xu+ezqetl9Ox+/Pj5e/Xx6mO6erb8cf0xN+XXC1kOqESuH35ZdYSePbL58vgMP++QpQIjEPgJSplNuAHIjzAOBEQW8DOFKJI0CJw21AihRlAFiQrQJAoDa+wWjIIGmLODcPYAQolEaWqrGEkpbOyTUgQ1pFfEgRJJ2ZsgupUga05kI1jAChBJLOjdLIUguUUUjie6kxBZS0UEsjoFATCHBJN8G0th5xB4h1F2rv4usgjJPmHvEMKF0h64DoaZVKtcEcqqtDhAIqxskYkhUuAYA1AjvFKUm6DbC6ltEEslJGgLxwjdhLuQ4oXkCpwTq0RnE0gcSkoA4SKI60mvEkkIM1go6AqF1S6wDxIRkggZA0URxZMmuLQA9qmh7bOyVikIOa5B2tZpUoJKVWRoBC1zCAjjbDjJMW795spQS0au0pzs1nMwmYsdHqCpcTNaA4UQpjSKZyBXWQTFIXAMCSNZ8WHxIau9beVX3SAQGKt0rGNjNJdHwDY5YM0MZKJ+nNsg6ofcheNR+aD017ilftHZBEE1UHCL2U64DqJ9AkUSQgm9PZAxowMrW5v7CZjLq1UVlsZGg5McVlR2uDzReDkeI0Grtq/wEhKAtbgMa0S4NDSxeLqE25Cgzf7Li50R76I261XxjfYAaNJGQrWxzfYNYj4A3TejK23xVxtxZL52Vm6WhqWWndNm09LyCJ/3TXXYT0set+7LpvEyQ7PYTO27ozsbdXmf1zPaRFCvMeuHr/wvhqgwMi9mVn9r0AP49j9JuAKVZAQDZv1C2JhQqIiBcpxEaCxJD68+YiwKWyVN9HuO/s+8SlHODza/SbOjbVyn4gvvP5U/zEte0MxdMWAxcurHWRL/dlbn1Qhe4kcw9BA7b763h/e+/5bnFT2HHT1+PIT0y4AOpFYDJVYCzGqLgWNQcHKl4/50I1e/9gzC7+Hqs97Q+Hy6nc9f/9MZz9dDnC4/s/);lineShape=1;strokeColor=default;" vertex="1" parent="1">
          <mxGeometry x="285.74144485048305" y="284.83981965624014" width="23.209465506043102" height="23.913468217484137" as="geometry" />
        </mxCell>
        <mxCell id="18" value="" style="shape=stencil(lVjLctswDPwaXzEk+ABwTtP/yEycxtM0zjju6+8L1ZUjQsq2vckWliSwWIDQrty8Pt697HecXs+n4+f998P9+XFXPuyYD8+P+9Ph7E+7crsrNw/H0/7T6fj1+f7y++Vuspyevhy/TSv8uOA4k/GE4vTzzz+k7fcfHy/2T4fnhX02am2wz75CAYBOTcYNMqUMAIU0AIwE7ZBJRheKkAgAJGplANRGFTmdSPIAaEwF+eCvRx+aUlIAaFTSAOhMLb0P4LICCOX+PqAwZRsBRlYBQIjrAJBKYgBgVHQEGCkgruYYJa3UQFhrIQsAhcS1RDZGyZgEhLWnmN6WqYMoyYppxUyrkHJ0WgFxllZOOw/AaauURuK0UUKAHgXkAKQ406gHvS6xDbCV00IGmHZAKEtqlEFYHZDGI3ncKmDaZF5vwXRFTlfq45E8l+CRPHNWydcA01My1xUAHMlpqn11JOC0MplFp1Eh00wsMawM9KAe9XEHNVjuHSBjMfbUELRDXunh2mK2Aa6HAGgzlduAThrSu85x2wbYnMxLiQIfrMyCXO6A9NBILfpQgdMu0VxjlAoqMzbn5oIH1IFySpTG/PYEFrxFDQpKMDdco7rSaEZ1psXObtds2QYw9QBgqkjUPLeDfwTIqrh6uS2gGnsfL6EFKexZzdN15GFBzXYf7ZG5iX0A8LtACV777QAwV7z2hXLsvRuEiYV6KGUJljL2nhbqhpMPROo3phwSPMHGyzlS7Vx2pAiZO/8VwHMCb+dGpMG5b8C+EAf7Al1e3Rz8FlqhfTjPdM0Fcksxon6PRlmRY00qAqXg3WpUgk8CDPphoxwmhwSLpMwNfzHLNNQYYjly6aPyFenK8P5scXXvveAwPpSElpDwmORXgxbsUfB9DgvXFyxIH2FCNuAi5IOh1GiPzqMz92/2DOSbVw0tQfVOr8NkSwmXh5g9c817zz7OtZDf/53M/27vD2+fAR4OT0+XrwjL9/Gzgf91+eRQbn8B);lineShape=1;strokeColor=default;" vertex="1" parent="1">
          <mxGeometry x="310.02838606865987" y="253.31332916730082" width="25.786457263826378" height="64.1317492595989" as="geometry" />
        </mxCell>
        <mxCell id="19" value="" style="shape=stencil(lVjLctswDPwaXzEkwec5Tf8jM3FqT10747ivv++qLhURsreTmy1hBQLYBSBt9OFt9/S63QT3djmfvm5/7p8vu41+2oSwP+625/0Fvzb6uNGHl9N5++V8+n58vv5/fZosp1/fTj+mJ/y64prUPIGC+329oE5a/Hvl89X+sD8u7EMQVQvI7j5As7jRQyiiBBBxO4wAHKkRD1VKHAG44okHL76OMWRJiQBwe4wBVwo7UpNWBkCK9EgaJI9pzUGCEkAUPx6peImFxOAkjWktTUK4D0ihl2kBKPk+IEfRNAKqNFLpGiUaQJJMYqhNfBsBYBeJoekq6CKRHKlladUGnUnQbU5iB9TQyXIT4J0TN+a1JqmEG5OLkd/Ig2NnKuL8AGi+8/FumkYytUjZhwOEka4NlSOFQKmTs4B/mb4JQNprtIDAAKmTcwYgKgYInWuLLDkGcJ3Ncx2qOJIlAIyokYZCmiskbD14SaRwJfbbC8lV5qGKmraRpZLWBzZX4wFsZaIuNuipMqRXtiA+rY5EYpiYs+ozlXWBuqoD0so8oH2PAqq8fbe5SSypwfpMsZWeyEfqAEHWsc+8i/Y2wNmpOAmIACpaabMAJtEPA4r2PjcDaq/97RFU+0ibARhBfFDr6GHRbm/PUewCqzMFAvDVjsXGJ7V3trmCTJkIAnIxIwhXCL1V8mifc99v7jzfRJxQNjaxsFiM8sGKxnKKHTGMHrAPKSkbFjzTiiMUSEL2cwZngNKRiBjMwFKVwqqmdjdBVGxzAC/MQuYTHSdTHca61V6YexufmYhYNAiNkEI/hsyVgIUzBvN81vOgZjfaT0wnDgAwjR7UjaQNZy95jBhrciNFi7ETeaaFk0pyhBDNuodHsHGIEKMBJLoDVJukyQEVZ3HWXrn4jTaV07S/3c32ofP2pv1qiiCjmZwfHBuVDOmzubZahrXQVrF6i9FEm6nvGpntI40XHDXnD5QQyXIaA4XZFysy2LNx89H38//b48f7x4CX/eFw/ZawvG8/HuDS9cODPv4B);lineShape=1;strokeColor=default;" vertex="1" parent="1">
          <mxGeometry x="353.79381635673417" y="282.05876440604663" width="21.701682707950454" height="31.436365923650214" as="geometry" />
        </mxCell>
        <mxCell id="20" value="" style="shape=stencil(7VjLctswDPwaXzEkwec5Tf8jM3FqT9M44zh9/H2hupQNyF5ZvfSSmyxrCQJYLECu+O5t8/C6XgX3dtjvvq5/bB8PmxV/WoWwfdms99uDPK34fsV3T7v9+st+9/7yePz9+jB8OTx9230fVvh5xPlIJQ6o4H4d3wQmV/68+XwEPG9fNMAXBeBK1WNAVoDkqcwAmgLkSCFBAGsfSqLYICCzAlRZAllIFDSgSZSQhUTOa4AEesYHHaWWiQMAMLGxUKg4APDUdJSaJA5ZcBMLjTKwUCnpIHnnyAFA7hu+FRCpLdoRU2iLXJ6sj2PqqOpamEmaoxCWsGKMxq20I69TXJkq+J6padKVQCmjDDud4TyucI3Vf90baz9TAICQqOmMiVj4CgCZnHYhOugCO8o6Z6FRRIBs68a3LoGXSZrslqSSEGCIiQ4rkwesKN4KJK4aIX0ytKMM1peiKsYBTAsBNFP5qUf5GsDIo68YUMhVnTUPe0IbBf2sr3lQms33v0eA9CHQpmrpXewMgIpTekysdksOcLtKn5w4jYqhNKrVhjWBLZVKzQASJWzBG0CgCBJXXS+uE/eQgRooawOFAsqCEE1nYXxx+ftqqzlCBWuBmM36DNZvMnloGuU+a1wjtklZpQIy1pqNp/T1hAYLN2kip/HnqglTzQUObIMPpnQclFQJkglqCJCnkgWjkAE3NklzNWNtnONR8tZCAnoxEFWHdZge0HQkMTF5aNiCAPwSgFSzmSEFEECUcqIySRwSmFRs55FyqKi1eWuBAwTE0mV9rE8PZTjyRAA8lGGedLfsKYIKEsViPTHkDDVDyGwGgBJ7Ki/XaO1HrrO5Dc5VH+eRG6b/j/PI/z6POKuRM+ds10X91oM8OU2huZsCW2dzVxG2kGfuOtylCQ+oncTHyKnvbejKftj0HNcjcFmJKEzmwQK+5z7mn3d+wLfUsz9+L8oI/M2Tg0WGfb/22fLG74eDVlyyIRGhvMhjGXdbWhJS0UVzNprJmShvMqPLDCn+4QpvDiAPpxvDp+3z8/HC8fx/e8Mor463k3z/Gw==);lineShape=1;strokeColor=default;" vertex="1" parent="1">
          <mxGeometry x="395.8917581685847" y="276.01769518415676" width="27.688473273848786" height="30.269862486302145" as="geometry" />
        </mxCell>
        <mxCell id="21" value="" style="shape=stencil(lVbZctswDPwavWJAkODxnKb/kZk4taeunXHcNvn7wlWkiJC607zpwBLXYsEh3r3sH553g/DL9XL+vvt9eLzuh/hlEDmc9rvL4WpPQ7wf4t3T+bL7djn/PD2O788PN8vb04/zr9sJryMuMBPzDSb8Nn7KJOXvh68j4Hg4LQBNSWJnL4FiA4BAtQfERMoAYBHVDpCUFIRUK5XSATRTAB6qUmt9zoVaBgChkDpAMZ8IYDXRDtDiFOQmwM57D2AGKFWQQxFS56FQBoAsVEMPMJ/13wBlKs5Dm47YBEQLIHlAA9SQRHUFQNQIVsRVDgmEpBM1Z/sMU2DPpGYhghoxxZ7bTSa2b9onCi5+pqog4UBFOkBtFACPRCj2PKqY2jaMTTwggpBSJW4rAOhyZkp9Uet8xDa1rQvNJx3R8FiKjqkBerDxFNeHiAFM0lfJxvNdErZD0kmBFuPJgBk5TykuqI1UT9Mq6QYFIAlxP20L8d8m0ywQCxcFZB0KBfVJoHkoVKqvEuKS7ZKVSiog62q5WZ8Vzv/n7JPXow8qbu823zNbPCogX5nkYV5tShkVyDZfXyFbngF0IFhHV+s5gJRNYdzsWFcEsYh9kzMxqJE5cAKT4CCYyGeXAQVQohim3/McUAPnR1sx6uzR1KTsp2beEtuDbBeu5uzR+Vn91mSoLCZF7ONBO7PGdb4BcNRWWOrjF8g4G1nHh0gR7FjTHO4Jl6YDthn92SvtfwDs4eMG/XQ4HscL+PK/v3Hbp/G2Hu//AA==);lineShape=1;strokeColor=default;" vertex="1" parent="1">
          <mxGeometry x="148.02783109445727" y="85.06051528466548" width="4.921807602527451" height="31.482339368402336" as="geometry" />
        </mxCell>
        <mxCell id="22" value="" style="shape=stencil(lVbLctswDPwaXTEkQRLkOUn/IzNxak1dO+O4efx9oWpoi4i009xkEmsCu3gNfPe6f3zZDcG9Xs6nX7v38emyH/h+CGE87nfn8aJfAz8MfPd8Ou9+nk9/jk/z75fHyXL6+n16m/7hY8Z558i5CRbc53xUqeR/Bz9mwGE8LgBVyPf2CnAMAIlc7gCRqSCAXksHSJlKBQBvAaJBAUBJNobqiEHQxTdOrgCmHLcBEinWHpDbySogM0npAYVy2AYkRyX1ABXObQNYyH0BVPBCuMq0cKmmbYAPlMQGXUHQSlLs7SMF2bZXkXxv71tMG/a5l7kI5QI4pdBrUCIlQKlnmxa3RFmnNFHsNSgOFg8Xq4FU8oDSFGzMCoggU3OypKpLAmKQRNnEwK2FrBePpkXoAQkmnl4Ho1ulAFhSB2L/QtU3gdAirdyvAI3KA5Y0cQygkAOApLQal2qjYb0WvKV10ZrXk0k9KPYJBlH7TM74JCQoN9rtgqUA7L3VTWXwsD7N6CmFBCT3mj1qecp4n9q5QtG0nk0D0MnjQC0oo7l/IQbcUx2FHqAqZkCRAkwMWs6ow3yZVAIlmDpSr3GkCnKIvZ0i3LJwq4GxSWtKwP+YG3/N/krAep3lNjFu9qhotN2ZsengCNFu572xR3ppK0rOxCuAH108UjR8MhiBWoFmIGijQcuUZnz//0IJ2H97H/wPgH7c1s/n8XCYt9flvV1X9WhedfnhLw==);lineShape=1;strokeColor=default;" vertex="1" parent="1">
          <mxGeometry x="164.90972526495807" y="92.97158119545884" width="5.128531320594334" height="20.99135296841564" as="geometry" />
        </mxCell>
        <mxCell id="23" value="" style="shape=stencil(lVbLctswDPwaXTEEwRfOafofmYlTe+raGcdpm78PVFWKCMXb6U2WuQKwWCwxyN3L/uF5N8Twcr2cv+9+HR6v+0G+DDEeTvvd5XC1p0HuB7l7Ol923y7n19Pj9Pv5YTw5Pv04/xy/8HvCpUJaR1QMb9ObQqX9efF1On88nNbnK4XUnY+RWG4DMpOEDiCJNABAodY6QDKA3gaURqx9CUwl3QZUoSIdoDIxSKkFCn2EqpQASyoe0ColwJJWqtwDLAIDgJLmDqBMNUJA7lPSRIwAJgQXoZAUAGBKpQc0iojWRLnXkiWZQIRafOM4WGtACNNGzj5EBSFMOpx9EbUCuWaKfeeslwzUNw6EqzpTAI1I21ZHKqAGi+AGQgNFINdsA9bz2tpMw+cshZmTBVDgQIwz2rtAy5RABGs1Vw9g0AcTE7MHIJaUNyktznNrIBJ7lioQ36jmTR8UuMBKzQtCSNCQ1tlLV2JC3mffSxu5FtAII0VdEQp9w6zxb8YrgAIrM/P1E6SQpiIbXi0lpG+rofmiK5rRbdEGACxJ9DW0CPVt16z0ALuVBIgpsrdjo6ECWrlR6O14tCqkPpkzXi5eGwg0ctR6I5MCA8g8j6vVIYOLfTMMFXY5zA601EsZ8BM3ewkpkHUm6cmJ8OvqueQZ/zn3iaS3u0AZZMNKLbrzAZidpe9GBt+bwhTEnRcwMNZ5Tq7eAKSTwszeB53o0kxCrc9f4H1jynULWJ4LunX+/9bgf563h4+d++lwPE4r+/p/v6Pbq2m/l/t3);lineShape=1;strokeColor=default;" vertex="1" parent="1">
          <mxGeometry x="168.92719752044036" y="89.93339691466451" width="8.825773663630002" height="29.809774646759138" as="geometry" />
        </mxCell>
        <mxCell id="24" value="" style="shape=stencil(lVbLctswDPwaXTEgQRLkOU3/IzNxak9dO+M4ffx9oSqyDUreTm4yjSVA7GLJQR7etk+vmyHy2/l0/L75tXs+bwf5MsS4O2w3p93ZvgZ5HOTh5XjafDsd3w/P0+/XpzFy/Ppx/Dnu8HvCMdU4giL/mRYak/C/la9T/H53uIkPiVpxABUSvQ+ISokdIDeKACCZWnaA1EjqfUAqlJoD2BYfp1oF5NyXFIVqug8okVJyAGtDARk0UlBfEjFIoHZm8QkogiNXplxdPFME+9c8l3uNZ1C/iSBLF18yiE9Uu44SA46bUvP9SRQCiG+kvv4yN+BefPUqNc0BVbc6K+zS/zBnXAfkhSJMQqhDgaRjOJM0QJmd0Lc0FAoFAMKipEIMMmih0vqSAgJE0sWhMzi0mspC39aPNqwPWiX1PFwW1uPbXPBVFwHoTgMFv7+QogMkyl5HJgvUodq7I88srnMm/dxbx1C87Z+6eEGqE0qdrikjWStx6fqDzN3mTDzBmRTwG/hyvivBSBCWgP1lEJgacoqyYEzw6BtAPwVgUg8wEpBX2GBWT5q5UQOTPKrUqzrZbAOac50H/UKDGTLgLS10WhIcfVGqXqiqsxTXr/3FpTxaJuiS3QDdKBgzMEPs7wRz8YjEZ13vSsK3gvlnrT2gIoDZYeeojAc6XF5bNymQ4ynF0Mcjx0sLGupsgetdXdRjTQDC4N6wjWYB2l7Mv1lUgftzR3KYnw534j/3nv1/vH1cH88vu/1+envf/t8/tm1peqjL418=);lineShape=1;strokeColor=default;" vertex="1" parent="1">
          <mxGeometry x="173.94585666703142" y="91.10207550571738" width="15.041992151728095" height="28.96595827657393" as="geometry" />
        </mxCell>
        <mxCell id="25" value="" style="shape=stencil(lVbbchoxDP2afdXYliXbz2n6H5kJKTulkCGkbf4+2u4sxQIO4W0xOpalc3QZ+OFt/fS6GlJ4O+x3P1d/xufDeuBvQ0rjdr3ajwf7Gvhx4IeX3X71Y7973z7Pv1+fJsvp69fu93TD3xnXlEQmVAof80kh0X8H32f7zbg9tReKvX0K1CoAKIXaAxppA4BKSTtA5uXkMqBR4A4g5rNcB8QQKIQOoYU0Qhe1D6IGyvk6oDZKuQM0piIAkEhSD1Bi4KFEaj0RljgGREgl7dNkUSnwYGl3Hk4SdxFhzGb1LnICTChp6QGFGuBaqbksCRVENSX2NAQgvkCx9fZ2ApLK/j21EKP3JAoOkKkxSCmT9iRUpghYY6vfPgSTVgQplbTI5hQASFOlXPyTkCxKPfOQqYCgq1ItPq0R1Wek4LLUqIEnGa3ZEZ2oAg9VzpQkJCCGIlRdByhQqmpdzj2pEYMn5Ur1DIBaMWeKxQMKYNrKQc96jADxtaXHnTQxATEnUlfOeamPK+Xp+rYRH0FXPSr/KAsbLiBD99rbWHCyC4sQr5V/6gO2wZMBxzF7nYostXEZYP2nB9yYnrEtDH1xPhsJ0pNwYwMwD7EH4BXDrnNJsh4PRGctUvrSxCJK1VemzV7AAVvG+/vjUqmX6zIvI2axx7uCsFcdnrKavCawvW0K4u9H7yntvninbh3vyGc7jpev8WWNNrv9Durh4koLSub2Cmwf//fnl3Gzmdfv0//9vm1H867Oj58=);lineShape=1;strokeColor=default;" vertex="1" parent="1">
          <mxGeometry x="195.7250885702407" y="96.82263048258585" width="5.663528885261144" height="28.78249699832304" as="geometry" />
        </mxCell>
        <mxCell id="26" value="" style="shape=stencil(lVZJchsxDHzNXFEkAG5nx/mHqyxHqiiSS5az/D5QJsOIGKlduc0CkFi6G5jk4W379LqZOLydT8evmx+75/N2kk8T8+6w3Zx2Z3ua5HGSh5fjafPldHw/PM/vr08Xy8vTt+P3ywk/Z7/ElNPFi8Ov+QtT5D8fPs/2+93hyr7Ybx3sY6Ck9x1apsLjBZlyve8QQ6AQBg9NpBFcESnkwSEVahk4MPGYdMmkArKO1MaQ7M5S7juwUIuuTD2t22lnSmNMrVECnWhUx6RboQKSVkoy2usS4+2AKIpPmUHKq67VQgzi76d1e6EIcKFUx/OL1QfEY7jkEXjW5IKAl6mNEZVEoYEmK8nIhaKUgYNEStnfkEEPpPgmlw+abHR2XQiwy0YtrqODUgFU0B5xd6hUkYP4pI1+iDvSfFlNQyKQGJFFHrpDpYQal0nGTrfOptvQqIueXDuApGP0WLKQFIAvL6rb7ROUMKbAvqh/9eMOO+Oqa6hEJuorWCiCNknzuCtA7iqxo05ZkHu7oMYsx+YE5dH0pTo22xFIsuOKa9hBLUM3RUz1AU5t1paxCVmhRCZdFK5PwgKpk5nqWCXpUL+dQ1tm8dV0FtTn4PUi2qwFTOBCcUSG6SwDRTJVbePgsd4j+hv2snOIkJwXsDpywv3CIooOGRTQ+UbdERiK46nrHawBWAgvY6knDLcXw0AYexZIQUEN2K4+eHVRmxjq7CPQIq1+OQoLV+/x5r921I/t7eHfQvyy2+/nffr6v1+g7dO8fMvjbw==);lineShape=1;strokeColor=default;" vertex="1" parent="1">
          <mxGeometry x="196.9598059681166" y="99.80046966067789" width="12.155704193727956" height="21.945221820136226" as="geometry" />
        </mxCell>
        <mxCell id="27" value="" style="shape=stencil(lVfLbhsxDPwaXwmJ1POcpv8RIE5t1I0Dx+nj78vtQhuT9k7h23pXY4nDGZLayMP77ultu+Hwfj4dv29/7Z/Pu4182TDvX3fb0/6sTxt53MjDy/G0/XY6frw+z7/fnqaV09OP48/pH37PuNiI84Ti8Gd+06mEfy++zusP+9fL9XV8HuslURUA6CTJAHIcb24COFLvBlCEQgeARrUaQM3UQAypUC8WEKiAI+VOzR6pJopgh1IoxasYeB1Qo98hNcogaA0xswFwhSzVQmKDZqYOElcbiT2SppLrOqBFSlYasVAGLLVMoVlAoh4BoFNIHlDKOqAzNSuNmKkClnqhaFlSg0QQdNc02R1UvzkDgGrJGo4zzPQEcIlb/mLtSMWKT2Soay1otlqSSowAqhybB+lUUaY7RbtDCjAGlYbLgwIKUOskvuqPFEDiVN7JxaAOQRYt3g/CVNpdFm3jzRrA0cqJGO1Qh3IWQBiF5zZLgcRKQ+u5oMSpchwgQ2m0StUGrRaF8o4jr5c7IMepNLKPgZEfKrXmWUIdSB2Xy1UeUFMMgYItfZrqhLri3YiefHXNbZTP25koo5YuTatQQY7Qz24UUJ7AkQp7zynViFjt/C7oqZKA1KmHfUv5JO72MCC+ReiZKjhTXBrzAChxEQVBYtWkzb6B9ULR6jsLMZKG79OibRJ4+kpInTogKIzNF1XAdhWo22gzlAQPnyyHH9GscNOc98cot0J9tdTgse3K92FoY8WTfhzBUovsqQyUUWJ1ZnQDFR61s2/8AoWpZTC6SZsCIF/Xd+t3raNo/b1Xhf+u14fPe8nL/nCYrzWX3/09Rl/NdyB5/As=);lineShape=1;strokeColor=default;" vertex="1" parent="1">
          <mxGeometry x="215.91647161092476" y="103.92781097447767" width="22.83717151111864" height="21.25511886904303" as="geometry" />
        </mxCell>
        <mxCell id="28" value="" style="shape=stencil(lVbRchshDPyae9UAAgHPafofmYlT39S1M47bJn9fXW9wjBzv+d44TouQ2JU08MPb9ul1MwT3djoefm7+js+n7cDfhhDG/XZzHE+6Gvhx4IeXw3Hz43j4vX+ev1+fJstp9evwZzrhfcbVSlUmVHAf806iHP9vfJ/td+P+0j5RqJ29ApwAQGjnNQBXyg4AIsXeQ3IkyEMiKR1APFXkIVF0HSBHSh4AMsXcAUokz7cB3jlyvQsNa/oELrgPogq5fBtQKhXjIVMGHnJp73QGVHIgamHibAEF5DVmy42LPHyJYG/fWl0IAPhMwj2gtJ2voyYvNksBOSBvYlayAPI5G3JlShXkiCT09p4ysPfcxHIGqEsg0CDN/5mrlTx6NRVLf6VSoBpSaefdCchMkddcqQixXxO0PpJVD06r0iwbD/jdlGbFEA8TQ+te6eveAvNKIDZUxdQWzbqhBhZPCiQr9Skk3rpAJUD1U9kCUJHxjny1aUJlLFzdCNfJtYV4rX2gZLiNW0NsT3Rn74nEvToXmltqp93ZPZWUPesW2nO0wlno/5rPXgZ4vrhqCLGp4ka02dyeXAKnX7FHkwmSr79NuXZUC9BLsO3AESMycDvu0x7pMSnX7X2QvZy1dN99dEZgex8Ub8l2ksL5nLRkhkH4XrVYNmM6rJ5mF+118Tk6v4y73Tx5X/63o7ZuzWM6P/4D);lineShape=1;strokeColor=default;" vertex="1" parent="1">
          <mxGeometry x="252.1041477646686" y="113.11945887813681" width="3.7917044706628076" height="32.74731633356657" as="geometry" />
        </mxCell>
        <mxCell id="29" value="" style="shape=stencil(lVbLctswDPwaX3dIgODjnKb/kZk4taeunXGcPv6+VDVUAkRCJzdZxoLYBbDiju9eDg/P+x2Fl9v18n3/6/h4O+z4y47oeD7sr8dbf9rx/Y7vni7X/bfr5fX8OP9+fpgip6cfl59Tht8zrqGlCUThz/wiIIR/L77O4afj+V04CTKreELO2/FcIFnFC0rbjpcE0fljAKVtQCHEqAEyKK0CWs9XNAMZZ64D+APlihwdQIZoTVlAjkit52sKkJKrUmuo+gTJIKdtE0CfkCvYA1RUUoDSU3gqZRTd6NpG67dkbUEBeorkkQ52lN5YrQJqQWgWkBzSlQfFBSAI1QFERNGkC7g409rARtalyHVAhWhAFrdxHVB1ScIgcTh82IdE7ixVsvvA7JZUu2dUvUDF7XSfHLPTfUU9WRtBxJ4QveHrJZkVpVHk1j4Eo1IEO7L2URNNWmgIvQqIYXHepdUJ5NXUhuzLMGVEb0eLNabarcpbuYSmp6+/EY91RNGd60VGb4MqyPq9/wWaEOlTiBxQjTUlRAfQ3TexFbY43xTqOun56/YaPWHHSi7xeWRYp4CmGXQXyE7+ZN07k2vGZPNLcQlHJDPcEeJ8EgOS2Z40+r4Rb1aB8zDOrXjjMNU1vYCi9ZkqdPSMqLr+yIPR+rXH8i3ITvli543dxS/WgIM7DJ+84v03vD+83SafjqfTfBl9/7+9ffZX882V7/8C);lineShape=1;strokeColor=default;" vertex="1" parent="1">
          <mxGeometry x="245.81174266590597" y="115.8051970642257" width="22.797902063942843" height="6.5564968076992045" as="geometry" />
        </mxCell>
        <mxCell id="30" value="" style="shape=stencil(lZbbbtswDIafxrcESR0oXnfdexRouhjLkiJNd3j70TC8RrTNoUAubIefJJI/KQ7p4e349HoYGN9u18v3w6/x+XYc0peBeTwfD9fxZk9DehzSw8vlevh2vbyfn+f316fJcnr6cfk5rfB75rhBooli/DN/yTC92e/rbH8az3f2qQFJZ29Awn0gKxTuN0CgvA8UBU0dUDII7QOSgEsHCILIPqAK1DpAE6S2DxAiIPZEBg2csC1y77XWJQ7bgEDWHhDQEgB5tYMCBk4oQkkekABoFbgH7uKwTRBoXW0RANJWmWigQZikAIsPk6RQHKX6RHAgjklNq1TXIEySvfxMTRQdyZTgnCYQDQCrCOc0hkDLgMUDHMi1WRfQFRAkThlK9kCtAVABxTtdAh9MCNXlgaFFgEJzYbUSCfrGpE13pBrK2460Fl+JgALF5aGBRG2DFhfvCqhGFSeLNu8AjaRhna54oAWJM/GlVU1zLG9i7zRFOyTQ5vMQNaZPA8XaVh9WWyIHzTVZ4vpMF1n0uwlw8RWXGWqQaSJ/y3ENKw59l6nLhx1zd2HlUBboW1IKdUrL1fTv8Au/PQMA9s2ClvBumlsyewFhmF3Tb3bmUa+j5K+1+FKjClW8fSBnWnVrXG7qbemwDyaF65vU3MVP4SjCsoTjI7cYtMXPToT/t7eHj/HzZTyd5un1/n8/rtqnedRNj38B);lineShape=1;strokeColor=default;" vertex="1" parent="1">
          <mxGeometry x="280.3657155476528" y="126.36839887559756" width="11.442022141669668" height="31.190324903855412" as="geometry" />
        </mxCell>
        <mxCell id="31" value="" style="shape=stencil(lVbZbtswEPwavQ5ILs/nHP8RIE4t1LEDx0nbv++qglwvVQ2aN1neIfeYGe0gd+/7p7fdENz75Xz6vvsxPl/2g9wPIYzH/e48XvRpkIdB7l5O59238+nj+Dz/fnuaIqen19PndMLPGdcEyU+o4H7NbyQguz9vHmfAYTzeAEqBFAOIAb5sA3JEaAaQAqpsA/RvLwaQAwpJKTQUC6gRKW0DfEStBtAKWiMAj5IsoKH6bUBFXMWXSmqGyCqhQEpGsVNrEZHk41Dt0GpDJuc7ONd31GUW7+2MS4WQkXlEW28JaOR8ZanNP1ck0s+8dOMan2i92o2OcryfXtNdXcAa5BOa7WguSKxDtZdN0aaRkr0yMlhARiKk1qFJtEMOCPyGYlOqylIi/amGjtYCx4SZFme40YFjXQorQEMkgLYYwxLvnaM35JUyK0qkTO2UmWi8h3RW5Jcbt5TWKTlR5Wh1Np/qEEi9rid2ichkZOpEnTLbwvQNp+uVmRcv2Ip3X4lXkqZsAEkQSAH6vUt2AtEhkYlFtUILEG0aK0E5ZGvWqTdygyrd2xu8pkTsS3Uotktq+OQCdf/OT7kIlJPdB1NpSM7Xr5G3FfvFCf4dn+GtdwmPL6gdK+CYvbfFdq4qQ+Tx3fmek+jGRa6IQs1Ur8jWfaceMUDtdxDVhiPfqLba1HQtCcQq1KmS9XfhNPry8vgfAH34u6u+jIfDvOre/t/vtvpq3ovl4Tc=);lineShape=1;strokeColor=default;" vertex="1" parent="1">
          <mxGeometry x="278.12121194979204" y="133.00274494501411" width="20.882567285300638" height="11.947689810069733" as="geometry" />
        </mxCell>
      </root>
    </mxGraphModel>
  </diagram>
  <diagram id="LDjt5P5dyJoEyQ3ADzL4" name="Page-2">
    <mxGraphModel dx="1762" dy="807" grid="1" gridSize="10" guides="1" tooltips="1" connect="1" arrows="1" fold="1" page="1" pageScale="1" pageWidth="850" pageHeight="1100" math="0" shadow="0">
      <root>
        <mxCell id="0" />
        <mxCell id="1" parent="0" />
      </root>
    </mxGraphModel>
  </diagram>
</mxfile>
